<?xml version="1.0" encoding="UTF-8" standalone="no"?>
<svg
   xmlns:dc="http://purl.org/dc/elements/1.1/"
   xmlns:cc="http://creativecommons.org/ns#"
   xmlns:rdf="http://www.w3.org/1999/02/22-rdf-syntax-ns#"
   xmlns:svg="http://www.w3.org/2000/svg"
   xmlns="http://www.w3.org/2000/svg"
   xmlns:sodipodi="http://sodipodi.sourceforge.net/DTD/sodipodi-0.dtd"
   xmlns:inkscape="http://www.inkscape.org/namespaces/inkscape"
   viewBox="0 0 512 512"
   version="1.1"
   id="svg3985"
   sodipodi:docname="HTML5 Logo_pers.svg"
   inkscape:version="0.92.5 (2060ec1f9f, 2020-04-08)">
  <metadata
     id="metadata3991">
    <rdf:RDF>
      <cc:Work
         rdf:about="">
        <dc:format>image/svg+xml</dc:format>
        <dc:type
           rdf:resource="http://purl.org/dc/dcmitype/StillImage" />
        <dc:title>HTML5 Logo</dc:title>
      </cc:Work>
    </rdf:RDF>
  </metadata>
  <defs
     id="defs3989" />
  <sodipodi:namedview
     pagecolor="#ffffff"
     bordercolor="#666666"
     borderopacity="1"
     objecttolerance="10"
     gridtolerance="10"
     guidetolerance="10"
     inkscape:pageopacity="0"
     inkscape:pageshadow="2"
     inkscape:window-width="1920"
     inkscape:window-height="999"
     id="namedview3987"
     showgrid="false"
     inkscape:zoom="0.921875"
     inkscape:cx="-36.338982"
     inkscape:cy="183.1206"
     inkscape:window-x="0"
     inkscape:window-y="0"
     inkscape:window-maximized="1"
     inkscape:current-layer="svg3985" />
  <title
     id="title3973">HTML5 Logo</title>
  <path
     fill="#e44d26"
     d="M107.6 471l-33-370.4h362.8l-33 370.2L255.7 512"
     id="path3977"
     style="fill:#ff000a;fill-opacity:1"
     inkscape:export-xdpi="96"
     inkscape:export-ydpi="96" />
  <path
     fill="#f16529"
     d="M256 480.5V131H404.3L376 447"
     id="path3979"
     style="fill:#000001;fill-opacity:1"
     inkscape:export-xdpi="96"
     inkscape:export-ydpi="96" />
  <path
     fill="#ebebeb"
     d="M142 176.3h114v45.4h-64.2l4.2 46.5h60v45.3H154.4M156.4 336.3H202l3.2 36.3 50.8 13.6v47.4l-93.2-26"
     id="path3981"
     style="fill:#000000;fill-opacity:1"
     inkscape:export-xdpi="96"
     inkscape:export-ydpi="96" />
  <path
     fill="#fff"
     d="M369.6 176.3H255.8v45.4h109.6M361.3 268.2H255.8v45.4h56l-5.3 59-50.7 13.6v47.2l93-25.8"
     id="path3983"
     style="fill:#ff0000;fill-opacity:1"
     inkscape:export-xdpi="96"
     inkscape:export-ydpi="96" />
  <g
     inkscape:groupmode="layer"
     id="layer1"
     inkscape:label="Layer 1"
     style="display:inline"
     sodipodi:insensitive="true" />
  <g
     inkscape:groupmode="layer"
     id="layer2"
     inkscape:label="Layer 2" />
  <path
     inkscape:connector-curvature="0"
     style="font-style:normal;font-variant:normal;font-weight:bold;font-stretch:normal;font-size:66.6663208px;line-height:1.25;font-family:sans-serif;-inkscape-font-specification:'sans-serif, Bold';font-variant-ligatures:normal;font-variant-caps:normal;font-variant-numeric:normal;font-feature-settings:normal;text-align:start;letter-spacing:0px;word-spacing:0px;writing-mode:lr-tb;text-anchor:start;fill:#000000;fill-opacity:1;stroke:none;stroke-width:1.55161047;image-rendering:auto"
     d="M 129.40489,6.6858465 146.52599,85.6585 h 21.414 l 12.9238,-60.035154 13.0704,60.035154 h 21.414 l 16.9766,-78.9726535 h -17.6524 L 202.22909,64.07647 189.88339,6.6858465 h -17.8926 L 159.64509,64.07647 147.20169,6.6858465 Z m 115.0722,0 V 85.6585 h 51.17 V 70.26592 h -32.6016 V 52.17608 h 29.6601 V 36.783502 h -29.6601 V 22.078424 h 31.541 V 6.6858465 Z m 67.4707,0 V 85.6585 h 30.8184 c 9.5813,0 16.7198,-1.86948 21.4141,-5.60742 4.6942,-3.73794 7.041,-9.41431 7.041,-17.03125 0,-4.97217 -1.093,-9.16928 -3.2793,-12.58984 -2.1864,-3.42057 -5.2729,-5.76567 -9.2598,-7.03516 3.1188,-1.30475 5.497,-3.29653 7.1367,-5.976562 1.6398,-2.715297 2.461,-5.994159 2.461,-9.837891 0,-7.299564 -2.2507,-12.607097 -6.752,-15.921875 -4.4691,-3.3147775 -11.7038,-4.9726555 -21.7031,-4.9726555 z m 18.5684,13.8593745 h 10.2734 c 2.9259,0 5.1432,0.722161 6.6543,2.167968 1.5112,1.410544 2.2676,3.474157 2.2676,6.189453 0,2.750561 -0.7564,4.829691 -2.2676,6.240235 -1.5111,1.410544 -3.7284,2.117187 -6.6543,2.117187 h -10.2734 z m 0,30.572269 h 10.9004 c 3.7618,0 6.5746,0.86388 8.4394,2.59179 1.8649,1.69266 2.7969,4.24936 2.7969,7.66993 0,3.49109 -0.9487,6.1002 -2.8457,7.82812 -1.8648,1.72792 -4.661,2.5918 -8.3906,2.5918 h -10.9004 z"
     id="flowRoot4800-3"
     sodipodi:nodetypes="cccccccccccccccccccccccccccccscscccscsccscscscccscscscc" />
</svg>
